<?xml version="1.0" encoding="UTF-8" standalone="no"?>
<!-- Created with Inkscape (http://www.inkscape.org/) -->

<svg
   width="210mm"
   height="297mm"
   viewBox="0 0 210 297"
   version="1.1"
   id="svg1"
   xml:space="preserve"
   sodipodi:docname="favicon.svg"
   inkscape:version="1.3.2 (091e20e, 2023-11-25, custom)"
   xmlns:inkscape="http://www.inkscape.org/namespaces/inkscape"
   xmlns:sodipodi="http://sodipodi.sourceforge.net/DTD/sodipodi-0.dtd"
   xmlns="http://www.w3.org/2000/svg"
   xmlns:svg="http://www.w3.org/2000/svg"><sodipodi:namedview
     id="namedview1"
     pagecolor="#ffffff"
     bordercolor="#000000"
     borderopacity="0.25"
     inkscape:showpageshadow="2"
     inkscape:pageopacity="0.0"
     inkscape:pagecheckerboard="0"
     inkscape:deskcolor="#d1d1d1"
     inkscape:document-units="mm"
     inkscape:zoom="0.20021921"
     inkscape:cx="224.75366"
     inkscape:cy="466.98816"
     inkscape:window-width="1920"
     inkscape:window-height="1057"
     inkscape:window-x="-8"
     inkscape:window-y="-8"
     inkscape:window-maximized="1"
     inkscape:current-layer="g12" /><defs
     id="defs1"><filter
       style="color-interpolation-filters:sRGB"
       id="filter38"
       x="-0.049174918"
       y="-0.06265378"
       width="1.0983498"
       height="1.1253076"><feFlood
         result="flood"
         in="SourceGraphic"
         flood-opacity="0.498039"
         flood-color="rgb(0,0,0)"
         id="feFlood37" /><feGaussianBlur
         result="blur"
         in="SourceGraphic"
         stdDeviation="1.0959044"
         id="feGaussianBlur37" /><feOffset
         result="offset"
         in="blur"
         dx="0.000000"
         dy="0.000000"
         id="feOffset37" /><feComposite
         result="comp1"
         operator="in"
         in="flood"
         in2="offset"
         id="feComposite37" /><feComposite
         result="fbSourceGraphic"
         operator="over"
         in="SourceGraphic"
         in2="comp1"
         id="feComposite38" /><feColorMatrix
         result="fbSourceGraphicAlpha"
         in="fbSourceGraphic"
         values="0 0 0 -1 0 0 0 0 -1 0 0 0 0 -1 0 0 0 0 1 0"
         id="feColorMatrix38" /><feFlood
         id="feFlood38"
         result="flood"
         in="fbSourceGraphic"
         flood-opacity="0.498039"
         flood-color="rgb(0,0,0)" /><feGaussianBlur
         id="feGaussianBlur38"
         result="blur"
         in="fbSourceGraphic"
         stdDeviation="0.000000" /><feOffset
         id="feOffset38"
         result="offset"
         in="blur"
         dx="0.000000"
         dy="0.000000" /><feComposite
         id="feComposite39"
         result="comp1"
         operator="in"
         in="flood"
         in2="offset" /><feComposite
         id="feComposite40"
         result="fbSourceGraphic"
         operator="over"
         in="fbSourceGraphic"
         in2="comp1" /><feColorMatrix
         result="fbSourceGraphicAlpha"
         in="fbSourceGraphic"
         values="0 0 0 -1 0 0 0 0 -1 0 0 0 0 -1 0 0 0 0 1 0"
         id="feColorMatrix40" /><feFlood
         id="feFlood40"
         result="flood"
         in="fbSourceGraphic"
         flood-opacity="0.498039"
         flood-color="rgb(0,0,0)" /><feGaussianBlur
         id="feGaussianBlur40"
         result="blur"
         in="fbSourceGraphic"
         stdDeviation="0.000000" /><feOffset
         id="feOffset40"
         result="offset"
         in="blur"
         dx="0.000000"
         dy="0.000000" /><feComposite
         id="feComposite41"
         result="comp1"
         operator="in"
         in="flood"
         in2="offset" /><feComposite
         id="feComposite42"
         result="fbSourceGraphic"
         operator="over"
         in="fbSourceGraphic"
         in2="comp1" /><feColorMatrix
         result="fbSourceGraphicAlpha"
         in="fbSourceGraphic"
         values="0 0 0 -1 0 0 0 0 -1 0 0 0 0 -1 0 0 0 0 1 0"
         id="feColorMatrix42" /><feFlood
         id="feFlood42"
         result="flood"
         in="fbSourceGraphic"
         flood-opacity="0.498039"
         flood-color="rgb(0,0,0)" /><feGaussianBlur
         id="feGaussianBlur42"
         result="blur"
         in="fbSourceGraphic"
         stdDeviation="0.000000" /><feOffset
         id="feOffset42"
         result="offset"
         in="blur"
         dx="0.000000"
         dy="0.000000" /><feComposite
         id="feComposite43"
         result="comp1"
         operator="in"
         in="flood"
         in2="offset" /><feComposite
         id="feComposite44"
         result="fbSourceGraphic"
         operator="over"
         in="fbSourceGraphic"
         in2="comp1" /><feColorMatrix
         result="fbSourceGraphicAlpha"
         in="fbSourceGraphic"
         values="0 0 0 -1 0 0 0 0 -1 0 0 0 0 -1 0 0 0 0 1 0"
         id="feColorMatrix44" /><feFlood
         id="feFlood44"
         result="flood"
         in="fbSourceGraphic"
         flood-opacity="0.498039"
         flood-color="rgb(0,0,0)" /><feGaussianBlur
         id="feGaussianBlur44"
         result="blur"
         in="fbSourceGraphic"
         stdDeviation="0.000000" /><feOffset
         id="feOffset44"
         result="offset"
         in="blur"
         dx="0.000000"
         dy="0.000000" /><feComposite
         id="feComposite45"
         result="comp1"
         operator="in"
         in="flood"
         in2="offset" /><feComposite
         id="feComposite46"
         result="fbSourceGraphic"
         operator="over"
         in="fbSourceGraphic"
         in2="comp1" /><feColorMatrix
         result="fbSourceGraphicAlpha"
         in="fbSourceGraphic"
         values="0 0 0 -1 0 0 0 0 -1 0 0 0 0 -1 0 0 0 0 1 0"
         id="feColorMatrix46" /><feFlood
         id="feFlood46"
         result="flood"
         in="fbSourceGraphic"
         flood-opacity="0.498039"
         flood-color="rgb(0,0,0)" /><feGaussianBlur
         id="feGaussianBlur46"
         result="blur"
         in="fbSourceGraphic"
         stdDeviation="0.000000" /><feOffset
         id="feOffset46"
         result="offset"
         in="blur"
         dx="0.000000"
         dy="0.000000" /><feComposite
         id="feComposite47"
         result="comp1"
         operator="in"
         in="flood"
         in2="offset" /><feComposite
         id="feComposite48"
         result="fbSourceGraphic"
         operator="over"
         in="fbSourceGraphic"
         in2="comp1" /><feColorMatrix
         result="fbSourceGraphicAlpha"
         in="fbSourceGraphic"
         values="0 0 0 -1 0 0 0 0 -1 0 0 0 0 -1 0 0 0 0 1 0"
         id="feColorMatrix48" /><feFlood
         id="feFlood48"
         result="flood"
         in="fbSourceGraphic"
         flood-opacity="1.000000"
         flood-color="rgb(0,0,0)" /><feGaussianBlur
         id="feGaussianBlur48"
         result="blur"
         in="fbSourceGraphic"
         stdDeviation="0.000000" /><feOffset
         id="feOffset48"
         result="offset"
         in="blur"
         dx="0.000000"
         dy="0.000000" /><feComposite
         id="feComposite49"
         result="comp1"
         operator="in"
         in="flood"
         in2="offset" /><feComposite
         id="feComposite50"
         result="fbSourceGraphic"
         operator="over"
         in="fbSourceGraphic"
         in2="comp1" /><feColorMatrix
         result="fbSourceGraphicAlpha"
         in="fbSourceGraphic"
         values="0 0 0 -1 0 0 0 0 -1 0 0 0 0 -1 0 0 0 0 1 0"
         id="feColorMatrix50" /><feFlood
         id="feFlood50"
         result="flood"
         in="fbSourceGraphic"
         flood-opacity="1.000000"
         flood-color="rgb(0,0,0)" /><feGaussianBlur
         id="feGaussianBlur50"
         result="blur"
         in="fbSourceGraphic"
         stdDeviation="0.000000" /><feOffset
         id="feOffset50"
         result="offset"
         in="blur"
         dx="0.000000"
         dy="0.000000" /><feComposite
         id="feComposite51"
         result="comp1"
         operator="in"
         in="flood"
         in2="offset" /><feComposite
         id="feComposite52"
         result="fbSourceGraphic"
         operator="over"
         in="fbSourceGraphic"
         in2="comp1" /><feColorMatrix
         result="fbSourceGraphicAlpha"
         in="fbSourceGraphic"
         values="0 0 0 -1 0 0 0 0 -1 0 0 0 0 -1 0 0 0 0 1 0"
         id="feColorMatrix52" /><feFlood
         id="feFlood52"
         result="flood"
         in="fbSourceGraphic"
         flood-opacity="0.501961"
         flood-color="rgb(0,0,0)" /><feGaussianBlur
         id="feGaussianBlur52"
         result="blur"
         in="fbSourceGraphic"
         stdDeviation="0.000000" /><feOffset
         id="feOffset52"
         result="offset"
         in="blur"
         dx="0.000000"
         dy="0.000000" /><feComposite
         id="feComposite53"
         result="comp1"
         operator="in"
         in="flood"
         in2="offset" /><feComposite
         id="feComposite54"
         result="fbSourceGraphic"
         operator="over"
         in="fbSourceGraphic"
         in2="comp1" /><feColorMatrix
         result="fbSourceGraphicAlpha"
         in="fbSourceGraphic"
         values="0 0 0 -1 0 0 0 0 -1 0 0 0 0 -1 0 0 0 0 1 0"
         id="feColorMatrix54" /><feFlood
         id="feFlood54"
         result="flood"
         in="fbSourceGraphic"
         flood-opacity="0.501961"
         flood-color="rgb(0,0,0)" /><feGaussianBlur
         id="feGaussianBlur54"
         result="blur"
         in="fbSourceGraphic"
         stdDeviation="0.000000" /><feOffset
         id="feOffset54"
         result="offset"
         in="blur"
         dx="0.000000"
         dy="0.000000" /><feComposite
         id="feComposite55"
         result="comp1"
         operator="in"
         in="flood"
         in2="offset" /><feComposite
         id="feComposite56"
         result="fbSourceGraphic"
         operator="over"
         in="fbSourceGraphic"
         in2="comp1" /><feColorMatrix
         result="fbSourceGraphicAlpha"
         in="fbSourceGraphic"
         values="0 0 0 -1 0 0 0 0 -1 0 0 0 0 -1 0 0 0 0 1 0"
         id="feColorMatrix66" /><feFlood
         id="feFlood66"
         result="flood"
         in="fbSourceGraphic"
         flood-opacity="0.501961"
         flood-color="rgb(0,0,0)" /><feGaussianBlur
         id="feGaussianBlur66"
         result="blur"
         in="fbSourceGraphic"
         stdDeviation="0.000000" /><feOffset
         id="feOffset66"
         result="offset"
         in="blur"
         dx="0.000000"
         dy="0.000000" /><feComposite
         id="feComposite66"
         result="comp1"
         operator="out"
         in="flood"
         in2="offset" /><feComposite
         id="feComposite67"
         result="fbSourceGraphic"
         operator="atop"
         in="comp1"
         in2="fbSourceGraphic" /><feColorMatrix
         result="fbSourceGraphicAlpha"
         in="fbSourceGraphic"
         values="0 0 0 -1 0 0 0 0 -1 0 0 0 0 -1 0 0 0 0 1 0"
         id="feColorMatrix67" /><feFlood
         id="feFlood67"
         result="flood"
         in="fbSourceGraphic"
         flood-opacity="0.501961"
         flood-color="rgb(0,0,0)" /><feGaussianBlur
         id="feGaussianBlur67"
         result="blur"
         in="fbSourceGraphic"
         stdDeviation="0.000000" /><feOffset
         id="feOffset67"
         result="offset"
         in="blur"
         dx="0.000000"
         dy="0.000000" /><feComposite
         id="feComposite68"
         result="comp1"
         operator="out"
         in="flood"
         in2="offset" /><feComposite
         id="feComposite69"
         result="fbSourceGraphic"
         operator="atop"
         in="comp1"
         in2="fbSourceGraphic" /><feColorMatrix
         result="fbSourceGraphicAlpha"
         in="fbSourceGraphic"
         values="0 0 0 -1 0 0 0 0 -1 0 0 0 0 -1 0 0 0 0 1 0"
         id="feColorMatrix69" /><feFlood
         id="feFlood69"
         result="flood"
         in="fbSourceGraphic"
         flood-opacity="0.501961"
         flood-color="rgb(0,0,0)" /><feGaussianBlur
         id="feGaussianBlur69"
         result="blur"
         in="fbSourceGraphic"
         stdDeviation="0.000000" /><feOffset
         id="feOffset69"
         result="offset"
         in="blur"
         dx="0.000000"
         dy="0.000000" /><feComposite
         id="feComposite70"
         result="comp1"
         operator="out"
         in="flood"
         in2="offset" /><feComposite
         id="feComposite71"
         result="fbSourceGraphic"
         operator="atop"
         in="comp1"
         in2="fbSourceGraphic" /><feColorMatrix
         result="fbSourceGraphicAlpha"
         in="fbSourceGraphic"
         values="0 0 0 -1 0 0 0 0 -1 0 0 0 0 -1 0 0 0 0 1 0"
         id="feColorMatrix71" /><feFlood
         id="feFlood71"
         result="flood"
         in="fbSourceGraphic"
         flood-opacity="0.501961"
         flood-color="rgb(0,0,0)" /><feGaussianBlur
         id="feGaussianBlur71"
         result="blur"
         in="fbSourceGraphic"
         stdDeviation="0.000000" /><feOffset
         id="feOffset71"
         result="offset"
         in="blur"
         dx="0.000000"
         dy="0.000000" /><feComposite
         id="feComposite72"
         result="comp1"
         operator="out"
         in="flood"
         in2="offset" /><feComposite
         id="feComposite73"
         result="fbSourceGraphic"
         operator="atop"
         in="comp1"
         in2="fbSourceGraphic" /><feColorMatrix
         result="fbSourceGraphicAlpha"
         in="fbSourceGraphic"
         values="0 0 0 -1 0 0 0 0 -1 0 0 0 0 -1 0 0 0 0 1 0"
         id="feColorMatrix73" /><feFlood
         id="feFlood73"
         result="flood"
         in="fbSourceGraphic"
         flood-opacity="0.501961"
         flood-color="rgb(0,0,0)" /><feGaussianBlur
         id="feGaussianBlur73"
         result="blur"
         in="fbSourceGraphic"
         stdDeviation="0.000000" /><feOffset
         id="feOffset73"
         result="offset"
         in="blur"
         dx="0.000000"
         dy="0.000000" /><feComposite
         id="feComposite74"
         result="comp1"
         operator="out"
         in="flood"
         in2="offset" /><feComposite
         id="feComposite75"
         result="fbSourceGraphic"
         operator="atop"
         in="comp1"
         in2="fbSourceGraphic" /><feColorMatrix
         result="fbSourceGraphicAlpha"
         in="fbSourceGraphic"
         values="0 0 0 -1 0 0 0 0 -1 0 0 0 0 -1 0 0 0 0 1 0"
         id="feColorMatrix75" /><feFlood
         id="feFlood75"
         result="flood"
         in="fbSourceGraphic"
         flood-opacity="0.501961"
         flood-color="rgb(0,0,0)" /><feGaussianBlur
         id="feGaussianBlur75"
         result="blur"
         in="fbSourceGraphic"
         stdDeviation="0.000000" /><feOffset
         id="feOffset75"
         result="offset"
         in="blur"
         dx="0.000000"
         dy="0.000000" /><feComposite
         id="feComposite76"
         result="comp1"
         operator="out"
         in="flood"
         in2="offset" /><feComposite
         id="feComposite77"
         result="fbSourceGraphic"
         operator="atop"
         in="comp1"
         in2="fbSourceGraphic" /><feColorMatrix
         result="fbSourceGraphicAlpha"
         in="fbSourceGraphic"
         values="0 0 0 -1 0 0 0 0 -1 0 0 0 0 -1 0 0 0 0 1 0"
         id="feColorMatrix77" /><feFlood
         id="feFlood77"
         result="flood"
         in="fbSourceGraphic"
         flood-opacity="0.501961"
         flood-color="rgb(0,0,0)" /><feGaussianBlur
         id="feGaussianBlur77"
         result="blur"
         in="fbSourceGraphic"
         stdDeviation="0.000000" /><feOffset
         id="feOffset77"
         result="offset"
         in="blur"
         dx="0.000000"
         dy="0.000000" /><feComposite
         id="feComposite78"
         result="comp1"
         operator="out"
         in="flood"
         in2="offset" /><feComposite
         id="feComposite79"
         result="fbSourceGraphic"
         operator="atop"
         in="comp1"
         in2="fbSourceGraphic" /><feColorMatrix
         result="fbSourceGraphicAlpha"
         in="fbSourceGraphic"
         values="0 0 0 -1 0 0 0 0 -1 0 0 0 0 -1 0 0 0 0 1 0"
         id="feColorMatrix79" /><feFlood
         id="feFlood79"
         result="flood"
         in="fbSourceGraphic"
         flood-opacity="0.501961"
         flood-color="rgb(0,0,0)" /><feGaussianBlur
         id="feGaussianBlur79"
         result="blur"
         in="fbSourceGraphic"
         stdDeviation="0.000000" /><feOffset
         id="feOffset79"
         result="offset"
         in="blur"
         dx="0.000000"
         dy="0.000000" /><feComposite
         id="feComposite80"
         result="comp1"
         operator="out"
         in="flood"
         in2="offset" /><feComposite
         id="feComposite81"
         result="fbSourceGraphic"
         operator="atop"
         in="comp1"
         in2="fbSourceGraphic" /><feColorMatrix
         result="fbSourceGraphicAlpha"
         in="fbSourceGraphic"
         values="0 0 0 -1 0 0 0 0 -1 0 0 0 0 -1 0 0 0 0 1 0"
         id="feColorMatrix81" /><feFlood
         id="feFlood81"
         result="flood"
         in="fbSourceGraphic"
         flood-opacity="0.501961"
         flood-color="rgb(0,0,0)" /><feGaussianBlur
         id="feGaussianBlur81"
         result="blur"
         in="fbSourceGraphic"
         stdDeviation="0.000000" /><feOffset
         id="feOffset81"
         result="offset"
         in="blur"
         dx="0.000000"
         dy="0.000000" /><feComposite
         id="feComposite82"
         result="comp1"
         operator="out"
         in="flood"
         in2="offset" /><feComposite
         id="feComposite83"
         result="fbSourceGraphic"
         operator="atop"
         in="comp1"
         in2="fbSourceGraphic" /><feColorMatrix
         result="fbSourceGraphicAlpha"
         in="fbSourceGraphic"
         values="0 0 0 -1 0 0 0 0 -1 0 0 0 0 -1 0 0 0 0 1 0"
         id="feColorMatrix83" /><feFlood
         id="feFlood83"
         result="flood"
         in="fbSourceGraphic"
         flood-opacity="0.501961"
         flood-color="rgb(0,0,0)" /><feGaussianBlur
         id="feGaussianBlur83"
         result="blur"
         in="fbSourceGraphic"
         stdDeviation="0.000000" /><feOffset
         id="feOffset83"
         result="offset"
         in="blur"
         dx="0.000000"
         dy="0.000000" /><feComposite
         id="feComposite84"
         result="comp1"
         operator="out"
         in="flood"
         in2="offset" /><feComposite
         id="feComposite85"
         result="fbSourceGraphic"
         operator="atop"
         in="comp1"
         in2="fbSourceGraphic" /><feColorMatrix
         result="fbSourceGraphicAlpha"
         in="fbSourceGraphic"
         values="0 0 0 -1 0 0 0 0 -1 0 0 0 0 -1 0 0 0 0 1 0"
         id="feColorMatrix85" /><feFlood
         id="feFlood85"
         result="flood"
         in="fbSourceGraphic"
         flood-opacity="0.501961"
         flood-color="rgb(0,0,0)" /><feGaussianBlur
         id="feGaussianBlur85"
         result="blur"
         in="fbSourceGraphic"
         stdDeviation="0.000000" /><feOffset
         id="feOffset85"
         result="offset"
         in="blur"
         dx="0.000000"
         dy="0.000000" /><feComposite
         id="feComposite86"
         result="comp1"
         operator="in"
         in="flood"
         in2="offset" /><feComposite
         id="feComposite87"
         result="fbSourceGraphic"
         operator="atop"
         in="comp1"
         in2="comp1" /><feColorMatrix
         result="fbSourceGraphicAlpha"
         in="fbSourceGraphic"
         values="0 0 0 -1 0 0 0 0 -1 0 0 0 0 -1 0 0 0 0 1 0"
         id="feColorMatrix87" /><feFlood
         id="feFlood87"
         result="flood"
         in="fbSourceGraphic"
         flood-opacity="0.501961"
         flood-color="rgb(0,0,0)" /><feGaussianBlur
         id="feGaussianBlur87"
         result="blur"
         in="fbSourceGraphic"
         stdDeviation="0.000000" /><feOffset
         id="feOffset87"
         result="offset"
         in="blur"
         dx="0.000000"
         dy="0.000000" /><feComposite
         id="feComposite88"
         result="comp1"
         operator="in"
         in="flood"
         in2="offset" /><feComposite
         id="feComposite89"
         result="fbSourceGraphic"
         operator="atop"
         in="comp1"
         in2="comp1" /><feColorMatrix
         result="fbSourceGraphicAlpha"
         in="fbSourceGraphic"
         values="0 0 0 -1 0 0 0 0 -1 0 0 0 0 -1 0 0 0 0 1 0"
         id="feColorMatrix89" /><feFlood
         id="feFlood89"
         result="flood"
         in="fbSourceGraphic"
         flood-opacity="0.501961"
         flood-color="rgb(0,0,0)" /><feGaussianBlur
         id="feGaussianBlur89"
         result="blur"
         in="fbSourceGraphic"
         stdDeviation="0.000000" /><feOffset
         id="feOffset89"
         result="offset"
         in="blur"
         dx="0.000000"
         dy="0.000000" /><feComposite
         id="feComposite90"
         result="comp1"
         operator="in"
         in="flood"
         in2="offset" /><feComposite
         id="feComposite91"
         result="fbSourceGraphic"
         operator="out"
         in="comp1"
         in2="fbSourceGraphic" /><feColorMatrix
         result="fbSourceGraphicAlpha"
         in="fbSourceGraphic"
         values="0 0 0 -1 0 0 0 0 -1 0 0 0 0 -1 0 0 0 0 1 0"
         id="feColorMatrix91" /><feFlood
         id="feFlood91"
         result="flood"
         in="fbSourceGraphic"
         flood-opacity="0.501961"
         flood-color="rgb(0,0,0)" /><feGaussianBlur
         id="feGaussianBlur91"
         result="blur"
         in="fbSourceGraphic"
         stdDeviation="0.000000" /><feOffset
         id="feOffset91"
         result="offset"
         in="blur"
         dx="0.000000"
         dy="0.000000" /><feComposite
         id="feComposite92"
         result="comp1"
         operator="in"
         in="flood"
         in2="offset" /><feComposite
         id="feComposite93"
         result="comp2"
         operator="out"
         in="comp1"
         in2="fbSourceGraphic" /></filter><filter
       style="color-interpolation-filters:sRGB"
       id="filter96"
       x="-0.066932555"
       y="-0.085278788"
       width="1.1338651"
       height="1.1705576"><feGaussianBlur
         stdDeviation="1.6690464"
         id="feGaussianBlur96"
         result="fbSourceGraphic" /><feColorMatrix
         result="fbSourceGraphicAlpha"
         in="fbSourceGraphic"
         values="0 0 0 -1 0 0 0 0 -1 0 0 0 0 -1 0 0 0 0 1 0"
         id="feColorMatrix100" /><feFlood
         id="feFlood100"
         result="flood"
         in="fbSourceGraphic"
         flood-opacity="0.501961"
         flood-color="rgb(0,0,0)" /><feGaussianBlur
         id="feGaussianBlur100"
         result="blur"
         in="fbSourceGraphic"
         stdDeviation="0.000000" /><feOffset
         id="feOffset100"
         result="offset"
         in="blur"
         dx="0.000000"
         dy="0.000000" /><feComposite
         id="feComposite100"
         result="comp1"
         operator="in"
         in="flood"
         in2="offset" /><feComposite
         id="feComposite101"
         result="fbSourceGraphic"
         operator="out"
         in="comp1"
         in2="fbSourceGraphic" /><feColorMatrix
         result="fbSourceGraphicAlpha"
         in="fbSourceGraphic"
         values="0 0 0 -1 0 0 0 0 -1 0 0 0 0 -1 0 0 0 0 1 0"
         id="feColorMatrix101" /><feFlood
         id="feFlood101"
         result="flood"
         in="fbSourceGraphic"
         flood-opacity="0.501961"
         flood-color="rgb(0,0,0)" /><feGaussianBlur
         id="feGaussianBlur101"
         result="blur"
         in="fbSourceGraphic"
         stdDeviation="0.000000" /><feOffset
         id="feOffset101"
         result="offset"
         in="blur"
         dx="0.000000"
         dy="0.000000" /><feComposite
         id="feComposite102"
         result="comp1"
         operator="in"
         in="flood"
         in2="offset" /><feComposite
         id="feComposite103"
         result="comp2"
         operator="out"
         in="comp1"
         in2="fbSourceGraphic" /></filter></defs><g
     id="layer1"><path
       style="display:none;fill:#000000;stroke-width:0.154307"
       d="m 120.22519,164.06532 c -1.05662,-0.17504 -1.785,-0.6888 -2.12422,-1.49832 -0.0762,-0.18194 -0.13863,-0.42747 -0.13863,-0.54561 0,-0.18915 0.0522,-0.21104 0.4369,-0.18321 0.36267,0.0262 0.44246,0.0708 0.46963,0.26204 0.0883,0.62121 1.14462,1.15738 2.28029,1.15738 1.75094,0 2.76563,-1.07944 2.03031,-2.15986 -0.41369,-0.60785 -0.68588,-0.73551 -1.78922,-0.83913 -1.27326,-0.11959 -1.84661,-0.30348 -2.38617,-0.76532 -1.05637,-0.90423 -1.38715,-2.39689 -0.87824,-3.96327 0.21047,-0.64782 0.85279,-1.35054 1.54322,-1.68833 0.76086,-0.37226 1.98858,-0.39585 2.76341,-0.0531 l 0.50888,0.2251 0.31182,-0.36185 0.31181,-0.36185 0.29016,0.25646 0.29016,0.25646 -0.31818,0.40173 -0.31819,0.40174 0.2616,0.38548 c 0.91882,1.35394 0.65467,3.38525 -0.56564,4.34985 l -0.49344,0.39005 0.40803,0.18002 c 0.79933,0.35266 1.34675,1.55519 1.10933,2.43688 -0.13156,0.48855 -0.71281,1.15948 -1.23551,1.42615 -0.38283,0.19531 -1.47031,0.41605 -1.94694,0.39521 -0.14136,-0.006 -0.51088,-0.0533 -0.82117,-0.1047 z m 2.17884,-5.0777 c 0.28617,-0.19835 0.54352,-0.50451 0.73193,-0.87069 0.26703,-0.51897 0.28738,-0.63769 0.25106,-1.46387 -0.0349,-0.79432 -0.0749,-0.95007 -0.34337,-1.33641 -0.46994,-0.67638 -1.03787,-0.91936 -2.05762,-0.88033 -0.71088,0.0272 -0.89071,0.073 -1.24117,0.31593 -0.59164,0.41015 -0.88077,0.98636 -0.93669,1.8668 -0.0601,0.94581 0.10444,1.52638 0.57475,2.02832 0.49201,0.52507 1.0185,0.7133 1.89031,0.67582 0.56908,-0.0245 0.76653,-0.0831 1.1308,-0.33557 z m -19.24501,1.60383 c -1.69967,-0.51889 -2.66656,-2.21631 -2.36599,-4.15362 0.26057,-1.67928 1.45459,-2.79042 3.13517,-2.91753 1.45925,-0.11036 2.63515,0.48726 3.22718,1.64014 0.30103,0.58623 0.34862,0.78226 0.35979,1.48225 l 0.0128,0.80667 -2.96334,0.0273 -2.96333,0.0273 0.0717,0.33251 c 0.28078,1.30094 1.46745,2.13516 2.83405,1.99232 0.6528,-0.0682 1.40616,-0.37566 1.6905,-0.68987 0.099,-0.10941 0.23069,-0.19739 0.2926,-0.19551 0.14603,0.004 0.57664,0.36362 0.57024,0.47566 -0.0102,0.17819 -0.99203,0.8679 -1.51524,1.0644 -0.56337,0.21157 -1.85545,0.27005 -2.38626,0.108 z m 3.55041,-4.2986 c -0.15929,-0.87104 -0.84381,-1.64562 -1.64859,-1.86544 -1.34825,-0.36829 -2.64937,0.18937 -3.1998,1.37142 -0.43755,0.93963 -0.59729,0.87952 2.33743,0.87952 h 2.58146 z m 3.47337,4.25232 c -0.54843,-0.1786 -1.03283,-0.47927 -1.414,-0.8777 l -0.30127,-0.31491 0.24209,-0.25769 c 0.30132,-0.32075 0.33505,-0.32008 0.68926,0.0136 0.54012,0.50884 1.12522,0.70517 2.087,0.70028 0.92458,-0.005 1.64746,-0.2539 1.78634,-0.61582 0.0826,-0.21512 0.0826,-0.80483 0,-1.01995 -0.10971,-0.28593 -0.77797,-0.54593 -1.99194,-0.77504 -0.64244,-0.12124 -1.33318,-0.30512 -1.53495,-0.40861 -1.48607,-0.76227 -1.34713,-2.58033 0.24812,-3.24672 0.60177,-0.25137 1.83032,-0.30692 2.55592,-0.11557 0.54663,0.14416 1.4091,0.6234 1.40004,0.77796 -0.002,0.0347 -0.11575,0.20023 -0.25269,0.3678 l -0.24898,0.30468 -0.23562,-0.20796 c -0.96933,-0.85554 -3.28239,-0.66664 -3.62084,0.29569 -0.13807,0.39263 0.0291,0.79456 0.42717,1.02705 0.18175,0.10615 0.85227,0.28459 1.49005,0.39655 1.4805,0.25989 2.1514,0.57164 2.49614,1.1599 0.57192,0.9759 0.19023,2.07314 -0.92534,2.66001 -0.52063,0.27388 -2.22754,0.35429 -2.8965,0.13644 z m 24.15567,-0.049 c -0.55225,-0.19082 -1.21637,-0.60229 -1.52814,-0.9468 -0.17075,-0.18868 -0.16643,-0.20846 0.0993,-0.45472 0.1528,-0.14161 0.30402,-0.25747 0.33604,-0.25747 0.032,0 0.21089,0.13404 0.39748,0.29786 0.74285,0.65223 1.95848,0.88431 3.00462,0.57364 0.93504,-0.27768 1.24249,-1.05887 0.6668,-1.6943 -0.25414,-0.28053 -0.42903,-0.34177 -1.73155,-0.60635 -2.12103,-0.43084 -2.69158,-0.89674 -2.59053,-2.11538 0.0593,-0.71498 0.37661,-1.14133 1.10026,-1.47834 0.49256,-0.2294 0.71427,-0.26758 1.55131,-0.26714 0.53714,3e-4 1.16533,0.0569 1.39599,0.12588 0.40391,0.12075 1.16256,0.61609 1.17029,0.7641 0.002,0.0395 -0.11212,0.19682 -0.25372,0.34962 -0.23909,0.25797 -0.27055,0.26596 -0.44067,0.11201 -0.49846,-0.4511 -1.7113,-0.67543 -2.62556,-0.48563 -0.65474,0.13592 -1.09673,0.54563 -1.09673,1.01662 0,0.63475 0.46208,0.88481 2.2102,1.19601 1.13545,0.20214 1.92294,0.56373 2.19627,1.00845 0.68656,1.11708 0.0953,2.49913 -1.23852,2.89524 -0.71958,0.21369 -1.95365,0.19803 -2.62314,-0.0333 z m 10.03396,-0.045 c -0.37286,-0.1271 -0.91705,-0.41345 -1.20931,-0.63633 -0.50824,-0.38759 -1.0426,-1.02665 -1.0426,-1.24687 0,-0.0572 0.17131,-0.18563 0.3807,-0.28548 l 0.38072,-0.18155 0.20972,0.29101 c 0.63575,0.88212 1.47634,1.27434 2.88388,1.3456 1.0206,0.0517 1.5907,-0.0597 2.10814,-0.41187 0.48656,-0.33115 0.70847,-0.6772 0.78161,-1.21886 0.1419,-1.05086 -0.45895,-1.57846 -2.29346,-2.01385 -2.89994,-0.68826 -3.27479,-0.84745 -3.79374,-1.61115 -0.31574,-0.46466 -0.42233,-1.26598 -0.25216,-1.89563 0.23027,-0.85204 1.19814,-1.61306 2.38197,-1.87289 0.82578,-0.18125 2.25877,-0.0834 3.00824,0.2055 0.62429,0.24062 1.60829,1.06654 1.60349,1.34591 -0.002,0.0811 -0.15446,0.22283 -0.34017,0.31503 -0.33736,0.16747 -0.33796,0.1673 -0.67974,-0.19191 -0.59275,-0.62296 -1.12417,-0.79812 -2.42138,-0.79812 -1.02937,0 -1.18318,0.0257 -1.71469,0.28673 -0.46704,0.22935 -0.62647,0.37471 -0.79671,0.72636 -0.41775,0.86297 -0.1995,1.48461 0.6593,1.87778 0.30199,0.13826 1.14523,0.3858 1.87385,0.55008 2.93613,0.66204 3.7416,1.28691 3.72266,2.88805 -0.0119,0.99957 -0.21914,1.42937 -0.98144,2.03458 -0.94383,0.74934 -3.04463,0.9834 -4.46888,0.49788 z m 8.54427,0.12168 c -0.36705,-0.14646 -0.61178,-0.39384 -0.84855,-0.85776 -0.18265,-0.35788 -0.21052,-0.63124 -0.23052,-2.26162 -0.0125,-1.01999 -0.0298,-2.12053 -0.0383,-2.44564 l -0.0155,-0.5911 h -0.34694 c -0.19083,0 -0.49152,-0.0289 -0.66821,-0.0642 -0.28365,-0.0567 -0.32126,-0.10486 -0.32126,-0.41121 v -0.34695 l 0.69391,1.2e-4 0.6939,1.3e-4 v -0.95103 -0.95103 l 0.43691,-0.0316 0.4369,-0.0316 v 0.97904 0.97904 l 1.0955,0.0292 c 0.97663,0.026 1.09852,0.0499 1.12333,0.22015 0.0637,0.43698 -0.0333,0.47724 -1.15042,0.47724 h -1.06846 v 2.39011 c 0,2.1947 0.0169,2.41721 0.20241,2.72147 0.28107,0.46097 0.81836,0.55045 1.70509,0.28396 0.16128,-0.0485 0.24083,3.1e-4 0.3341,0.20508 0.17885,0.39252 0.16275,0.42617 -0.29085,0.60766 -0.45655,0.18267 -1.34762,0.20855 -1.74342,0.0506 z m 4.90698,-0.0351 c -0.80576,-0.30884 -1.47605,-1.04776 -1.71905,-1.89507 -0.0496,-0.173 -0.10206,-1.3681 -0.11654,-2.65578 l -0.0263,-2.34123 0.42961,-0.0316 0.42962,-0.0316 0.002,2.29323 c 0.002,2.20389 0.0106,2.31387 0.24776,2.82318 0.5605,1.20384 2.26519,1.50493 3.33516,0.58908 0.6791,-0.5813 0.75891,-0.9382 0.77294,-3.45662 l 0.0122,-2.18565 0.43828,-0.0317 0.43828,-0.0317 -0.0271,3.4755 -0.0271,3.4755 -0.38551,0.0319 -0.3855,0.0319 v -0.54107 -0.54107 l -0.38549,0.36934 c -0.21203,0.20313 -0.54742,0.45164 -0.74532,0.55222 -0.47798,0.24296 -1.76816,0.30005 -2.28695,0.1012 z m 7.69187,-0.0199 c -0.37533,-0.1152 -0.66901,-0.31923 -1.13647,-0.78954 -0.77345,-0.77819 -1.02275,-1.4343 -1.02216,-2.69021 0,-1.10064 0.23327,-1.7556 0.87234,-2.45486 0.69906,-0.76488 1.32455,-1.02787 2.46063,-1.03461 0.98751,-0.006 1.53169,0.18327 2.18974,0.76106 l 0.38028,0.33389 v -1.90554 c 0,-1.78704 0.0122,-1.90942 0.19686,-1.96801 0.10828,-0.0344 0.31644,-0.0325 0.4626,0.004 l 0.26575,0.0667 v 4.87189 4.87189 h -0.4112 -0.4112 l -0.0122,-0.4883 c -0.007,-0.26857 -0.007,-0.523 0,-0.56541 0.0287,-0.18165 -0.19608,-0.0537 -0.39404,0.22428 -0.11803,0.16576 -0.49864,0.44332 -0.84582,0.6168 -0.53376,0.26673 -0.74377,0.31433 -1.3601,0.30827 -0.40089,-0.004 -0.95665,-0.0771 -1.23503,-0.16251 z m 1.98422,-0.81273 c 1.12611,-0.33442 1.77157,-1.30782 1.77157,-2.67162 0,-0.9151 -0.21953,-1.48447 -0.78354,-2.03223 -0.45666,-0.4435 -0.88523,-0.58323 -1.79115,-0.58402 -1.15778,-0.001 -2.00169,0.61251 -2.32272,1.6886 -0.46689,1.56494 0.17977,3.10392 1.49497,3.55789 0.69307,0.23922 0.94328,0.24557 1.63087,0.0414 z m 8.99768,0.79459 c -1.3691,-0.47327 -2.21408,-1.77575 -2.2123,-3.41021 0,-0.42406 0.0664,-0.98479 0.14658,-1.24608 0.46708,-1.52259 1.93305,-2.46169 3.63013,-2.32546 1.2525,0.10054 2.22101,0.80314 2.79759,2.02953 0.22626,0.48127 0.26643,0.71102 0.26988,1.54402 0.004,0.90277 -0.0221,1.03183 -0.33381,1.6651 -0.79062,1.60634 -2.5866,2.33471 -4.29807,1.7431 z m 2.29615,-0.90714 c 0.85068,-0.30222 1.466,-1.35283 1.466,-2.50307 0,-1.79944 -1.35303,-3 -3.02959,-2.68821 -0.79964,0.14871 -1.33656,0.53413 -1.73998,1.249 -0.28774,0.50989 -0.319,0.65119 -0.31845,1.43921 0,0.78642 0.0325,0.93035 0.31931,1.43921 0.64079,1.13688 1.9291,1.55187 3.30271,1.06386 z m -87.251052,-3.94228 v -4.93444 l 1.46491,0.002 c 3.073207,0.004 4.165147,0.28583 5.226957,1.35033 2.242795,2.24848 1.747846,6.46171 -0.92656,7.88715 -0.93149,0.49648 -1.73245,0.62578 -3.889197,0.62783 l -1.87611,0.002 z m 4.626027,3.73574 c 1.04289,-0.29182 1.93575,-1.14928 2.29319,-2.20227 0.540086,-1.59102 0.181276,-3.39123 -0.88319,-4.43114 -0.84935,-0.82974 -1.82612,-1.08922 -4.159917,-1.10509 l -0.9509,-0.006 v 3.98424 3.98423 l 1.56771,-0.0326 c 1.002627,-0.0209 1.771507,-0.0897 2.133107,-0.19086 z m 19.429345,-2.29653 v -3.50705 l 0.4369,0.0316 0.43691,0.0316 v 3.44383 3.44382 l -0.43691,0.0316 -0.4369,0.0316 z m 9.97168,0.006 v -3.50114 h 0.39806 c 0.38599,0 0.40009,0.0127 0.4649,0.41802 l 0.0669,0.41801 0.39961,-0.3165 c 1.47645,-1.16936 3.78536,-0.63822 4.53965,1.04431 0.23384,0.52159 0.24377,0.64128 0.24562,2.95939 l 0.002,2.41582 h -0.4112 -0.41121 l -0.0526,-2.36441 c -0.058,-2.6072 -0.11269,-2.86699 -0.70909,-3.36883 -0.89424,-0.75244 -2.57417,-0.53566 -3.23085,0.41692 -0.41109,0.59632 -0.4967,1.21467 -0.46569,3.36311 l 0.0282,1.95321 -0.4321,0.0316 -0.43211,0.0316 z m 46.43167,3.42078 c -0.0876,-0.0876 -0.088,-3.19823 0,-5.30281 l 0.0671,-1.61911 h 0.3951 0.39512 v 3.49523 3.49522 h -0.39407 c -0.21674,0 -0.42491,-0.0308 -0.46261,-0.0685 z m -56.43883,-8.54913 c -0.17635,-0.19487 -0.22295,-0.60197 -0.0915,-0.79892 0.36158,-0.54152 1.25774,-0.246 1.25774,0.41476 0,0.47838 -0.83277,0.75269 -1.16629,0.38416 z m 56.3703,-0.0176 c -0.42017,-0.42015 -0.13605,-1.02801 0.48046,-1.02801 0.36823,0 0.65035,0.27532 0.65035,0.63467 0,0.54567 -0.72597,0.79819 -1.13081,0.39334 z m -53.76481,-5.03648 c -0.84575,-0.0922 -1.46016,-0.26137 -2.09004,-0.57542 -0.55871,-0.27858 -1.40518,-0.9383 -1.40518,-1.09518 0,-0.0769 0.67412,-1.10143 0.99025,-1.50496 0.017,-0.0217 0.2037,0.11237 0.41495,0.29785 0.8727,0.76625 2.36841,1.2071 3.48103,1.02602 0.90823,-0.14782 1.2642,-0.44189 1.35507,-1.11944 0.0499,-0.37182 0.0186,-0.45362 -0.29323,-0.76538 -0.29702,-0.29703 -0.46373,-0.3673 -1.11824,-0.47133 -2.5361,-0.40309 -3.23058,-0.6542 -3.89416,-1.40807 -0.48165,-0.54719 -0.67364,-1.17883 -0.60118,-1.97791 0.0633,-0.69809 0.25418,-1.11002 0.73905,-1.59489 1.22605,-1.22604 4.02703,-1.4493 5.96831,-0.47571 1.03427,0.51871 1.04162,0.52923 0.6992,1.00193 -0.16053,0.2216 -0.41665,0.5512 -0.56915,0.73245 l -0.27729,0.32954 -0.4047,-0.26782 c -0.58325,-0.38597 -1.26839,-0.5621 -2.18653,-0.5621 -1.25724,0 -1.93896,0.38062 -1.93896,1.08255 0,0.69381 0.52021,0.97798 2.25305,1.23074 2.18445,0.31865 2.99152,0.72398 3.46466,1.74005 0.34029,0.73082 0.34061,1.8531 0.002,2.58303 -0.44837,0.96285 -1.45573,1.58027 -2.92512,1.79281 -0.37724,0.0546 -0.75529,0.0936 -0.8401,0.0867 -0.0848,-0.007 -0.45489,-0.0453 -0.82241,-0.0854 z m -10.34723,-0.10655 c -2.35747,-0.4239 -3.81658,-2.10589 -4.01175,-4.62454 -0.21044,-2.71582 1.25686,-4.79636 3.80671,-5.39767 2.27293,-0.536 4.58301,0.41136 5.50099,2.25593 0.38042,0.76443 0.52552,1.46727 0.52683,2.55213 l 0.002,1.00231 h -3.85011 -3.8501 l 0.1439,0.47817 c 0.45268,1.50413 2.2891,2.25715 4.13628,1.69608 0.39109,-0.11878 0.88316,-0.33276 1.09352,-0.47551 0.21033,-0.14274 0.41652,-0.25953 0.45818,-0.25953 0.0417,0 0.35187,0.28099 0.68935,0.62441 l 0.61359,0.62442 -0.35982,0.30821 c -0.19788,0.16952 -0.54484,0.4176 -0.77099,0.55129 -0.93606,0.55332 -2.94602,0.87679 -4.12779,0.6643 z m 3.76798,-6.14674 c 0,-0.35722 -0.38408,-1.09078 -0.73902,-1.41145 -0.6068,-0.5482 -1.03662,-0.7015 -1.94767,-0.69467 -1.31687,0.01 -2.36066,0.65488 -2.77763,1.7164 l -0.18628,0.47421 h 2.8253 c 1.55392,0 2.8253,-0.038 2.8253,-0.0845 z m 16.49953,6.10911 c -1.84378,-0.3685 -3.21944,-1.67447 -3.69763,-3.51028 -0.22661,-0.87007 -0.20487,-2.33899 0.0467,-3.15344 0.23983,-0.77642 0.84017,-1.7456 1.36705,-2.2069 0.99005,-0.86682 2.42428,-1.33076 3.82296,-1.23664 2.78072,0.18711 4.41144,1.97771 4.42024,4.85364 l 0.003,1.02801 -3.77793,0.027 c -3.71283,0.0265 -3.77793,0.0305 -3.77793,0.2346 0,0.3245 0.2919,0.94314 0.59657,1.26433 0.15248,0.16075 0.50855,0.41519 0.79125,0.5654 0.4635,0.24628 0.62007,0.27288 1.59341,0.27076 1.17313,-0.003 1.73586,-0.17258 2.38832,-0.72159 l 0.31548,-0.26545 0.59646,0.6489 c 0.32805,0.35689 0.59865,0.70418 0.60132,0.77174 0.008,0.20878 -1.11111,0.93503 -1.77787,1.15351 -1.25533,0.41135 -2.38971,0.50065 -3.51152,0.27644 z m 3.80727,-6.4922 c -0.27402,-0.91052 -0.77921,-1.38234 -1.75115,-1.6355 -0.7642,-0.19904 -1.0078,-0.19847 -1.70335,0.004 -0.98175,0.28574 -1.5671,0.83456 -1.9373,1.81639 l -0.10659,0.28271 h 2.81956 2.81956 z m 25.83591,6.48711 c -1.96068,-0.41023 -3.32607,-1.77468 -3.74262,-3.74007 -0.18793,-0.88674 -0.18587,-1.49273 0.008,-2.43286 0.19224,-0.93066 0.3438,-1.30014 0.78598,-1.91591 1.40604,-1.95805 4.2517,-2.61334 6.53435,-1.50471 0.79894,0.38803 1.5862,1.16337 1.93945,1.91007 0.41168,0.87021 0.67085,2.60745 0.4898,3.28306 l -0.062,0.2313 h -3.79981 -3.79981 l 0.0697,0.3341 c 0.11806,0.56636 0.55748,1.20863 1.03343,1.51046 0.67527,0.42825 1.2588,0.55695 2.23188,0.49227 0.89069,-0.0592 1.45406,-0.24301 1.99446,-0.65073 0.17999,-0.13579 0.36647,-0.24689 0.41443,-0.24689 0.0479,0 0.36029,0.27601 0.69412,0.61335 l 0.60695,0.61335 -0.19897,0.22461 c -0.90623,1.02306 -3.4414,1.64646 -5.19964,1.2786 z m 3.88058,-6.35148 c -0.27078,-1.35391 -1.66207,-2.14423 -3.21226,-1.82471 -1.21703,0.25086 -1.90591,0.8428 -2.24063,1.92535 l -0.0715,0.23131 h 2.7954 2.79539 z m 7.16959,6.38745 c -1.33188,-0.22251 -2.33106,-0.83812 -3.00959,-1.85422 -1.15688,-1.73243 -1.19919,-4.44134 -0.0964,-6.17233 0.91043,-1.42909 2.31262,-2.09652 4.24019,-2.0183 0.8806,0.0357 1.12879,0.0862 1.61602,0.32867 0.31659,0.15755 0.76763,0.46731 1.0023,0.68836 l 0.42669,0.4019 v -2.67262 -2.67262 h 1.07941 1.0794 v 6.93905 6.93905 h -1.028 -1.02801 v -0.29555 c 0,-0.16256 -0.0287,-0.43913 -0.0638,-0.61462 l -0.0638,-0.31906 -0.46078,0.40559 c -0.48372,0.42579 -1.27062,0.77211 -2.12069,0.93332 -0.57891,0.10979 -0.8323,0.10711 -1.57289,-0.0166 z m 2.47304,-2.1971 c 0.93247,-0.4554 1.48975,-1.37038 1.57662,-2.58866 0.076,-1.06615 -0.16992,-1.78351 -0.84329,-2.45953 -1.09601,-1.10031 -2.8305,-1.16605 -3.98368,-0.15097 -0.68343,0.60157 -0.94107,1.26359 -0.94188,2.42016 0,0.79933 0.0379,1.00534 0.28248,1.51413 0.3144,0.654 0.8209,1.12946 1.44863,1.35989 0.58256,0.21384 1.93568,0.1616 2.46112,-0.095 z m -79.609252,-4.78361 v -6.88765 h 3.373537 c 3.565016,0 4.202966,0.0582 5.129655,0.46803 0.81878,0.3621 1.76976,1.35746 2.10648,2.20479 0.89701,2.25728 0.0763,4.65859 -1.92011,5.61801 -0.394189,0.18944 -0.791259,0.34443 -0.882369,0.34443 -0.34037,0 -0.27989,0.14926 0.34935,0.86203 0.355099,0.40226 0.928739,1.07834 1.274739,1.50239 0.34601,0.42405 0.97606,1.1853 1.40014,1.69167 0.42407,0.50637 0.74685,0.95981 0.71728,1.00765 -0.0296,0.0478 -0.6236,0.0777 -1.32006,0.0664 l -1.2663,-0.0206 -1.988259,-2.44661 -1.988256,-2.44661 -1.3621,-0.005 -1.362107,-0.005 v 2.46722 2.46722 h -1.13081 -1.13081 z m 7.478063,-0.32597 c 0.74102,-0.38134 1.073239,-0.92568 1.132959,-1.85636 0.0776,-1.20882 -0.397849,-2.0549 -1.382249,-2.45983 -0.18795,-0.0773 -1.111306,-0.1225 -2.628416,-0.12863 l -2.338697,-0.009 -1e-5,2.40481 -3e-5,2.40482 2.364667,-0.0523 c 2.251606,-0.0498 2.387976,-0.0643 2.851776,-0.30302 z m 36.623449,2.34772 c 0,-2.67625 0.0191,-4.88518 0.0424,-4.90874 0.0233,-0.0236 0.48591,-0.0281 1.02801,-0.0101 l 0.98562,0.0328 v 0.57282 0.57283 l 0.40732,-0.46276 c 0.4676,-0.53121 1.21039,-0.89344 1.99899,-0.97483 0.77204,-0.0797 1.95935,0.26165 2.61618,0.75211 0.0202,0.0151 -0.13018,0.37887 -0.3341,0.80848 -0.20392,0.4296 -0.37075,0.82287 -0.37075,0.87391 0,0.2087 -0.2298,0.20957 -0.56543,0.002 -0.19583,-0.12103 -0.61013,-0.24628 -0.92066,-0.27833 -1.11502,-0.11508 -2.03429,0.3847 -2.484,1.35046 -0.23762,0.5103 -0.24276,0.58472 -0.24375,3.52822 l -0.002,3.00692 h -1.07941 -1.07941 z m 11.14105,4.28133 c -0.14219,-0.32152 -0.69117,-1.6515 -1.21997,-2.95552 -0.52879,-1.30403 -1.31189,-3.22677 -1.7402,-4.27277 -0.42831,-1.046 -0.77886,-1.93651 -0.77898,-1.97891 -1.4e-4,-0.0424 0.507,-0.0771 1.12695,-0.0771 0.96866,0 1.1406,0.0253 1.22254,0.1799 0.16849,0.31795 2.68751,7.00831 2.68751,7.1379 0,0.3177 0.23434,-0.22691 0.98131,-2.28057 0.44215,-1.21561 1.04645,-2.83473 1.34287,-3.59802 l 0.53894,-1.38781 1.05382,-0.0297 c 0.5796,-0.0164 1.11405,-0.007 1.18769,0.0216 0.1,0.0384 0.0405,0.26714 -0.23509,0.90354 -0.20293,0.46869 -0.70825,1.68485 -1.12295,2.70257 -0.4147,1.01773 -1.1074,2.70623 -1.53935,3.75223 -0.43194,1.046 -0.83224,2.02903 -0.88955,2.18452 l -0.10419,0.2827 h -1.12641 -1.12641 z"
       id="path3" /><g
       id="g13"
       style="display:inline"
       transform="matrix(1.5153463,0,0,1.5153463,1.819604,-130.23632)"><g
         id="g12"
         transform="matrix(3.2661414,0,0,3.2661414,-196.67582,-418.4098)"
         style="display:inline"><path
           id="path6"
           style="display:inline;opacity:1;fill:#ff0077;fill-opacity:1;fill-rule:evenodd;stroke-width:0.510062;stroke-linecap:round;stroke-linejoin:round;paint-order:stroke markers fill"
           d="m 61.840163,165.93965 c 0,0 0.56049,-2.36227 2.34248,-3.84808 0.44818,-0.3737 0.88119,-0.68646 1.30712,-0.93548 1.74571,-1.02067 3.55164,-1.02067 3.55164,-1.02067 h 31.839357 c 0,0 2.36671,0.0314 4.11663,1.24771 1.5353,1.0671 2.18113,2.16999 2.18113,2.16999 l 4.08456,7.14697 c 0,0 0.58927,1.14992 0.73842,2.95022 0.0894,1.07923 -0.27913,2.41468 -0.27913,2.41468 -1.16136,3.35963 -2.41393,7.10048 -3.20455,9.19824 -0.18247,0.48417 -0.40438,0.87456 -0.58097,1.1405 -0.35421,0.53344 -0.77465,1.16941 -1.52951,1.78286 -1.52332,1.23794 -4.12848,3.24021 -4.12848,3.24021 0.27937,0.99027 1.21986,4.26053 1.56532,5.46034 0.2959,1.0276 0.40143,1.61001 0.4003,2.45737 -0.003,2.11468 -0.84991,4.1237 -2.36404,5.58614 -1.08469,1.04765 -2.376837,1.71204 -3.938227,2.02439 -0.57611,0.11524 -1.20833,0.12925 -1.86825,0.12925 h -10.69479 c -0.49885,0 -0.96637,-0.007 -1.3817,-0.0545 -1.04868,-0.11914 -1.82353,-0.39779 -2.44064,-0.6949 -0.41068,-0.19771 -0.76145,-0.39223 -1.04029,-0.59483 -0.84135,-0.61131 -1.37598,-1.15122 -1.72253,-1.61603 -0.39242,-0.52634 -0.57351,-0.8204 -0.57351,-0.8204 0,0 -0.64551,1.33555 -2.36109,2.50451 -0.94857,0.64634 -1.9701,0.9907 -2.84335,1.15355 -1.01496,0.18927 -1.82784,0.14005 -2.06504,0.13981 l -10.26195,-0.0102 c -0.70761,-7.7e-4 -1.34913,0.004 -2.01511,-0.10433 -1.39911,-0.22787 -2.5349,-0.79723 -3.22253,-1.30364 -0.55981,-0.41227 -1.26986,-1.00873 -1.75197,-1.68551 -0.27839,-0.3908 -0.51298,-0.78498 -0.70818,-1.17631 -0.422857,-0.84774 -0.660848,-1.68211 -0.758694,-2.43975 -0.249857,-1.93467 0.312146,-3.38384 0.312146,-3.38384 l 0.791954,-2.64611 z" /><path
           id="path7"
           style="display:none;opacity:1;mix-blend-mode:normal;fill:#0b0000;fill-opacity:1;fill-rule:evenodd;stroke-width:0.510062;stroke-linecap:round;stroke-linejoin:round;paint-order:stroke markers fill;filter:url(#filter96)"
           d="m 69.041357,160.13545 c 0,0 -1.806013,-6e-5 -3.551721,1.0206 -0.42592,0.24902 -0.858707,0.56165 -1.306897,0.93535 -1.781978,1.48581 -2.342493,3.84834 -2.342493,3.84834 l -9.295556,31.05805 c 0,0 -0.561983,1.44911 -0.312126,3.38378 0.09785,0.75764 0.335756,1.5919 0.75861,2.43964 0.195199,0.39133 0.429583,0.78587 0.707967,1.17667 0.482113,0.67678 1.192536,1.2729 1.752348,1.68517 0.687628,0.50641 1.823432,1.07593 3.222542,1.3038 0.665979,0.10833 1.307255,0.10362 2.014865,0.10439 l 10.261905,0.0103 c 0.23721,2.4e-4 1.050042,0.0492 2.064991,-0.14004 0.873259,-0.16285 1.894668,-0.50708 2.843237,-1.15342 1.715578,-1.16896 2.361096,-2.50476 2.361096,-2.50476 0,0 0.181189,0.29429 0.573609,0.82062 0.346549,0.46481 0.881543,1.00462 1.722892,1.61593 0.27884,0.2026 0.629567,0.39708 1.040246,0.59479 0.61711,0.29711 1.391999,0.57591 2.440678,0.69505 0.41533,0.0475 0.882462,0.0543 1.381311,0.0543 h 10.694955 c 0.659919,0 1.291993,-0.0139 1.868103,-0.12919 1.561388,-0.31235 2.853571,-0.97652 3.938261,-2.02417 1.51413,-1.46242 2.3612,-3.47152 2.3642,-5.58622 10e-4,-0.84734 -0.1046,-1.42961 -0.4005,-2.45721 -0.34546,-1.19979 -1.2859,-4.47038 -1.56527,-5.46065 0,0 2.60511,-2.00218 4.12843,-3.24011 0.75485,-0.61345 1.17541,-1.2494 1.52962,-1.78284 0.17659,-0.26594 0.39837,-0.65633 0.58084,-1.1405 0.79062,-2.09776 2.04361,-5.83878 3.20497,-9.1984 0,0 0.36846,-1.3351 0.27906,-2.41433 -0.14915,-1.8003 -0.73846,-2.95021 -0.73846,-2.95021 l -4.08451,-7.14736 c 0,0 -0.64596,-1.1028 -2.18126,-2.1699 -1.74992,-1.2163 -4.11654,-1.24746 -4.11654,-1.24746 z m 1.386996,1.68775 h 28.45511 c 0,0 2.115447,0.0277 3.679367,1.11466 1.37211,0.95368 1.94923,1.93941 1.94923,1.93941 l 3.65042,6.38773 c 0,0 0.52661,1.02758 0.65991,2.63653 0.0799,0.96452 -0.2496,2.15801 -0.2496,2.15801 -1.03792,3.00253 -2.15732,6.3459 -2.8639,8.22068 -0.16308,0.43271 -0.36154,0.78139 -0.51935,1.01906 -0.31656,0.47674 -0.69222,1.04494 -1.36684,1.59319 -1.36141,1.10636 -3.6897,2.89595 -3.6897,2.89595 0.24967,0.88501 1.09014,3.80753 1.39888,4.8798 0.26445,0.91838 0.35913,1.43897 0.35812,2.19625 -0.003,1.88992 -0.75985,3.68546 -2.113051,4.99246 -0.969399,0.9363 -2.124243,1.53004 -3.519682,1.80919 -0.514869,0.10299 -1.079886,0.11576 -1.669665,0.11576 h -9.558073 c -0.44582,0 -0.863381,-0.006 -1.23455,-0.0486 -0.937229,-0.10648 -1.629743,-0.35562 -2.181263,-0.62115 -0.367019,-0.17669 -0.680449,-0.35069 -0.929659,-0.53175 -0.751909,-0.54634 -1.229721,-1.02896 -1.53944,-1.44436 -0.35071,-0.4704 -0.512631,-0.73329 -0.512631,-0.73329 0,0 -0.577227,1.19391 -2.110465,2.23863 -0.847749,0.57764 -1.760481,0.88539 -2.54093,1.03094 -0.907069,0.16915 -1.633366,0.12528 -1.845366,0.12506 l -9.171533,-0.009 c -0.632399,-6.9e-4 -1.205724,0.003 -1.800924,-0.093 -1.250398,-0.20365 -2.265378,-0.71271 -2.879927,-1.1653 -0.50032,-0.36845 -1.134927,-0.90152 -1.565796,-1.50637 -0.24879,-0.34926 -0.458587,-0.70136 -0.633036,-1.0511 -0.37791,-0.75763 -0.590545,-1.50365 -0.677995,-2.18075 -0.2233,-1.72904 0.279053,-3.0241 0.279053,-3.0241 l 8.307503,-27.75696 c 0,0 0.500824,-2.11118 2.093412,-3.43907 0.40055,-0.33397 0.787755,-0.61358 1.168404,-0.83612 1.560169,-0.91219 3.173967,-0.91209 3.173967,-0.91209 z" /><path
           id="path12"
           style="display:inline;fill:#007bf3;fill-opacity:1;fill-rule:evenodd;stroke:none;stroke-width:0.763203;stroke-linejoin:bevel;stroke-dasharray:none;stroke-opacity:1;paint-order:stroke markers fill"
           d="m 63.966288,165.18811 3.97003,7.25 0.0223,-0.0258 h 10.98711 2.47571 9.64947 l 2.30153,2.94051 v 3.34367 l -3.66621,3.22876 h -13.2428 l 1.52447,-5.84242 -12.52706,-0.71294 -0.0547,0.0634 -9.2687,26.60649 13.67053,0.015 4.435,-12.65919 h 7.28908 l 3.80673,12.6391 13.63783,0.005 -3.62762,-12.65025 9.298762,-7.26005 3.39886,-9.74659 -4.10543,-7.19473 z" /></g><path
         id="path13"
         style="display:none;opacity:1;mix-blend-mode:screen;fill:#000000;fill-opacity:1;fill-rule:evenodd;stroke-width:0.455848;stroke-linecap:round;stroke-linejoin:round;paint-order:stroke markers fill;filter:url(#filter38)"
         d="m 49.990984,168.13991 c 0,0 0.50092,-2.11119 2.09351,-3.43908 0.40055,-0.33397 0.78754,-0.6135 1.16819,-0.83604 1.56017,-0.91219 3.17417,-0.91219 3.17417,-0.91219 h 28.45527 c 0,0 2.115167,0.0281 3.679077,1.11509 1.37211,0.95368 1.94928,1.93935 1.94928,1.93935 l 3.6504,6.38732 c 0,0 0.52664,1.0277 0.65994,2.63665 0.0799,0.96452 -0.24946,2.15803 -0.24946,2.15803 -1.03792,3.00254 -2.15735,6.34578 -2.86392,8.22057 -0.16308,0.43271 -0.36141,0.78161 -0.51922,1.01928 -0.31656,0.47674 -0.69232,1.04512 -1.36693,1.59337 -1.3614,1.10636 -3.689652,2.89581 -3.689652,2.89581 0.24967,0.88502 1.090182,3.8077 1.398922,4.87997 0.26445,0.91838 0.35877,1.4389 0.35776,2.19618 -0.003,1.88992 -0.75957,3.6854 -2.112767,4.9924 -0.9694,0.9363 -2.12421,1.53007 -3.51965,1.80922 -0.51487,0.10299 -1.07989,0.11551 -1.66967,0.11551 h -9.55807 c -0.44582,0 -0.86366,-0.006 -1.23483,-0.0487 -0.93723,-0.10648 -1.62972,-0.35551 -2.18124,-0.62104 -0.36702,-0.17669 -0.68051,-0.35054 -0.92972,-0.5316 -0.75191,-0.54634 -1.22973,-1.02887 -1.53945,-1.44427 -0.35071,-0.4704 -0.51255,-0.73321 -0.51255,-0.73321 0,0 -0.57691,1.1936 -2.11015,2.23832 -0.84775,0.57764 -1.76071,0.88539 -2.54116,1.03094 -0.90707,0.16915 -1.63356,0.12516 -1.84556,0.12494 l -9.17127,-0.009 c -0.6324,-6.9e-4 -1.20574,0.003 -1.80094,-0.0932 -1.2504,-0.20365 -2.26548,-0.71249 -2.88003,-1.16508 -0.50032,-0.36845 -1.1349,-0.90151 -1.56577,-1.50636 -0.24879,-0.34926 -0.45846,-0.70155 -0.63291,-1.05129 -0.37791,-0.75763 -0.59061,-1.50332 -0.67806,-2.18042 -0.2233,-1.72905 0.27898,-3.02419 0.27898,-3.02419 z" /></g></g></svg>
